<svg preserveAspectRatio="none" overflow="visible" style="display: block;" width="20" height="20" viewBox="0 0 20 20" fill="none" xmlns="http://www.w3.org/2000/svg">
<g id="20&#195;&#151;20 / Airplay_20">
<g id="Vector">
<path fill-rule="evenodd" clip-rule="evenodd" d="M10 3C8.62831 3 7.29679 3.03826 6.11037 3.0913C4.99191 3.14131 4.26366 3.17651 3.70748 3.28652C3.19939 3.38701 2.92101 3.53515 2.68454 3.77302C2.44123 4.01777 2.29862 4.29063 2.2044 4.76674C2.09989 5.29484 2.07039 5.98214 2.0289 7.05103C2.01073 7.5193 2 8.00533 2 8.5C2 9.64427 2.05741 10.7405 2.13112 11.6755C2.16816 12.1453 2.18087 12.2622 2.26184 12.4939C2.31746 12.653 2.34883 12.721 2.36907 12.7597C2.39037 12.8004 2.4118 12.8339 2.48632 12.9443C2.7327 13.3091 2.93948 13.4371 3.02467 13.4793C3.05165 13.4926 3.07136 13.4998 3.08244 13.5033C3.59616 13.5453 4 13.9755 4 14.5C4 15.0523 3.55228 15.5 3 15.5C2.91016 15.5 2.76172 15.5 2.13736 15.2717C1.71949 15.0648 1.25505 14.6947 0.828802 14.0635C0.653096 13.8032 0.537416 13.6217 0.373871 13.1538C0.202708 12.6642 0.175443 12.3176 0.140004 11.867C0.13911 11.8556 0.13821 11.8442 0.137303 11.8327C0.0605289 10.8589 0 9.70867 0 8.5C0 7.97666 0.0113464 7.46461 0.0304089 6.97346C0.0313336 6.94963 0.0322538 6.92588 0.033171 6.90221C0.0710371 5.92491 0.103811 5.07903 0.242443 4.37848C0.394721 3.60899 0.684662 2.94791 1.26616 2.36298C1.8545 1.77116 2.53278 1.48012 3.31941 1.32453C4.04148 1.1817 4.92222 1.14237 5.95046 1.09645C5.97391 1.09541 5.99743 1.09436 6.02104 1.0933C7.23028 1.03923 8.5923 1 10 1C11.4077 1 12.7697 1.03923 13.979 1.0933L14.0495 1.09645C15.0778 1.14237 15.9585 1.1817 16.6806 1.32453C17.4672 1.48012 18.1455 1.77116 18.7338 2.36298C19.3153 2.94791 19.6053 3.60899 19.7576 4.37848C19.8962 5.07902 19.929 5.9249 19.9668 6.9022L19.9696 6.97346C19.9887 7.46461 20 7.97666 20 8.5C20 9.70868 19.9395 10.8589 19.8627 11.8327L19.86 11.867C19.8246 12.3176 19.7973 12.6642 19.6261 13.1538C19.4626 13.6217 19.3469 13.8032 19.1712 14.0635C18.745 14.6947 18.2805 15.0648 17.8626 15.2717C17.5137 15.4444 17.1641 15.5 17 15.5C16.4477 15.5 16 15.0523 16 14.5C16 13.9755 16.4038 13.5453 16.9176 13.5033C16.9286 13.4998 16.9483 13.4926 16.9753 13.4793C17.0605 13.4371 17.2673 13.3091 17.5137 12.9443C17.5882 12.8339 17.6096 12.8004 17.6309 12.7597C17.6512 12.721 17.6825 12.653 17.7382 12.4939C17.8191 12.2622 17.8318 12.1453 17.8689 11.6755C17.9426 10.7405 18 9.64427 18 8.5C18 8.00533 17.9893 7.5193 17.9711 7.05103C17.9296 5.98214 17.9001 5.29484 17.7956 4.76674C17.7014 4.29063 17.5588 4.01777 17.3155 3.77302C17.079 3.53515 16.8006 3.38701 16.2925 3.28652C15.7363 3.17651 15.0081 3.14131 13.8896 3.0913C12.7032 3.03826 11.3717 3 10 3Z" fill="white"/>
<path d="M11.2065 11.6332L15.4728 17.4086C16.1553 18.3324 15.5884 19.6398 14.4447 19.7449C13.0507 19.8731 11.341 19.9989 10.0001 19.9989C8.65918 19.9989 6.94946 19.873 5.55541 19.7448C4.41176 19.6396 3.8449 18.3323 4.5273 17.4085L8.79351 11.6332C9.39309 10.8216 10.607 10.8216 11.2065 11.6332Z" fill="white"/>
</g>
</g>
</svg>
