<svg preserveAspectRatio="none" overflow="visible" style="display: block;" width="72" height="72" viewBox="0 0 72 72" fill="none" xmlns="http://www.w3.org/2000/svg">
<g id="72&#195;&#151;72 / Previous_72">
<g id="Vector">
<path d="M17 17C17 15.3431 15.6569 14 14 14C12.3431 14 11 15.3431 11 17V55C11 56.6569 12.3431 58 14 58C15.6569 58 17 56.6569 17 55V17Z" fill="white"/>
<path d="M61 45.8439V26.1566C61 19.0081 61 15.4339 58.6899 14.1471C56.3798 12.8602 53.3407 14.7416 47.2627 18.5043L31.3615 28.3482C25.82 31.7786 23.0493 33.4939 23.0494 36.0006C23.0494 38.5074 25.8201 40.2226 31.3616 43.6529L47.2629 53.4963C53.3409 57.2588 56.3798 59.14 58.6899 57.8531C61 56.5663 61 52.9921 61 45.8439Z" fill="white"/>
</g>
</g>
</svg>
